<svg width="500" height="500" viewBox="0 0 500 500" fill="none" xmlns="http://www.w3.org/2000/svg">
<rect width="500" height="500" fill="#E5E5E5"/>
<path d="M106.09 319.86C82.32 290.2 97.09 234.1 133.09 199.99C164.53 170.24 198.34 173.36 225.79 134.99C251.37 99.24 264.84 60.99 313.41 45.82C351.64 33.9 377.82 53.08 401 75.44C464.42 136.6 450.62 200.89 367.76 266.62C328.16 298 276.15 332.78 229.3 348.13C173.08 366.55 135.55 356.64 106.09 319.86Z" fill="#16A085"/>
<path opacity="0.9" d="M106.09 319.86C82.32 290.2 97.09 234.1 133.09 199.99C164.53 170.24 198.34 173.36 225.79 134.99C251.37 99.24 264.84 60.99 313.41 45.82C351.64 33.9 377.82 53.08 401 75.44C464.42 136.6 450.62 200.89 367.76 266.62C328.16 298 276.15 332.78 229.3 348.13C173.08 366.55 135.55 356.64 106.09 319.86Z" fill="white"/>
<path d="M250.6 73.05C261.966 73.05 271.18 63.836 271.18 52.47C271.18 41.104 261.966 31.89 250.6 31.89C239.234 31.89 230.02 41.104 230.02 52.47C230.02 63.836 239.234 73.05 250.6 73.05Z" fill="#16A085"/>
<path d="M253.56 52.01L248.43 54.54L244.1 45.76L245.93 43.01L249.23 43.23L253.56 52.01Z" fill="white"/>
<path d="M246.47 44.6C246.378 44.6 246.287 44.5749 246.208 44.5273C246.128 44.4798 246.064 44.4116 246.02 44.33L243 38.14C242.971 38.0809 242.954 38.0167 242.95 37.9511C242.946 37.8854 242.955 37.8196 242.976 37.7574C242.998 37.6952 243.031 37.6378 243.075 37.5885C243.118 37.5392 243.171 37.4989 243.23 37.47C243.289 37.4411 243.353 37.4242 243.419 37.4201C243.485 37.416 243.55 37.4249 243.613 37.4463C243.675 37.4676 243.732 37.501 243.782 37.5446C243.831 37.5881 243.871 37.6409 243.9 37.7L246.9 43.88C246.929 43.9391 246.946 44.0033 246.95 44.069C246.954 44.1347 246.945 44.2005 246.924 44.2628C246.903 44.325 246.869 44.3824 246.826 44.4317C246.782 44.481 246.729 44.5212 246.67 44.55C246.609 44.5831 246.54 44.6002 246.47 44.6V44.6Z" fill="white"/>
<path opacity="0.4" d="M256.81 58.59L253.81 52.5L248.68 55.03L251.68 61.12L249.96 61.97L250.31 62.67L258.87 58.44L258.53 57.74L256.81 58.59Z" fill="white"/>
<path d="M257.65 63.62L252.49 53.16L250 54.38L255.16 64.84L254.32 65.26L254.68 65.97L258.83 63.92L258.48 63.2L257.65 63.62Z" fill="white"/>
<path d="M347.82 89.28C345.432 92.5761 342.12 95.09 338.303 96.5038C334.486 97.9176 330.335 98.1677 326.376 97.2226C322.417 96.2776 318.827 94.1797 316.06 91.1943C313.294 88.2089 311.474 84.4701 310.832 80.4507C310.19 76.4313 310.755 72.3118 312.454 68.6131C314.153 64.9145 316.911 61.8028 320.379 59.6716C323.847 57.5404 327.869 56.4853 331.936 56.6399C336.004 56.7945 339.934 58.1517 343.23 60.54C347.65 63.7425 350.616 68.5696 351.477 73.9594C352.338 79.3492 351.022 84.8602 347.82 89.28V89.28Z" fill="#16A085"/>
<path d="M338.13 66.69L334.28 72C334.265 72.0207 334.246 72.0375 334.223 72.0491C334.2 72.0607 334.175 72.0668 334.15 72.0668C334.125 72.0668 334.1 72.0607 334.077 72.0491C334.054 72.0375 334.035 72.0207 334.02 72C333.64 71.35 332.79 69.09 337.93 66.47C337.96 66.4588 337.993 66.4568 338.024 66.4643C338.055 66.4718 338.083 66.4885 338.105 66.5122C338.126 66.5359 338.14 66.5655 338.145 66.5972C338.149 66.6289 338.144 66.6613 338.13 66.69V66.69Z" fill="white"/>
<path d="M327.65 87.79C327.566 87.7892 327.484 87.7687 327.41 87.73C327.352 87.6988 327.301 87.6561 327.26 87.6046C327.218 87.5532 327.188 87.4939 327.17 87.4304C327.153 87.3669 327.148 87.3005 327.156 87.2352C327.165 87.1698 327.187 87.1068 327.22 87.05L334.81 73.36C334.894 73.2231 334.938 73.0656 334.938 72.905C334.938 72.7444 334.894 72.5869 334.81 72.45L334.11 71.45C334.072 71.3965 334.046 71.3359 334.032 71.272C334.018 71.208 334.017 71.1419 334.029 71.0776C334.042 71.0133 334.066 70.952 334.103 70.8975C334.139 70.8429 334.185 70.7962 334.24 70.76C334.348 70.6857 334.481 70.6566 334.61 70.679C334.739 70.7015 334.854 70.7736 334.93 70.88L335.63 71.88C335.835 72.1696 335.953 72.5114 335.97 72.8655C335.988 73.2196 335.905 73.5715 335.73 73.88L328.13 87.58C328.077 87.656 328.004 87.7158 327.92 87.7529C327.835 87.79 327.742 87.8028 327.65 87.79V87.79Z" fill="white"/>
<path d="M329.7 91.81C328.909 91.748 328.173 91.3822 327.646 90.7892C327.118 90.1962 326.841 89.4222 326.872 88.6293C326.903 87.8365 327.24 87.0865 327.812 86.5366C328.384 85.9866 329.147 85.6794 329.94 85.6794C330.733 85.6794 331.496 85.9866 332.068 86.5366C332.64 87.0865 332.977 87.8365 333.008 88.6293C333.039 89.4222 332.762 90.1962 332.234 90.7892C331.707 91.3822 330.971 91.748 330.18 91.81C330.02 91.8249 329.86 91.8249 329.7 91.81V91.81ZM329.7 86.75C329.59 86.7401 329.48 86.7401 329.37 86.75C329.106 86.7917 328.854 86.8858 328.627 87.0266C328.4 87.1674 328.204 87.3522 328.05 87.57C327.89 87.7841 327.775 88.028 327.711 88.2874C327.647 88.5467 327.636 88.8162 327.678 89.08C327.72 89.3438 327.814 89.5965 327.955 89.8232C328.097 90.0499 328.282 90.2461 328.5 90.4C328.714 90.5613 328.959 90.6779 329.219 90.7427C329.48 90.8074 329.75 90.8192 330.015 90.7772C330.28 90.7352 330.534 90.6404 330.762 90.4983C330.989 90.3562 331.186 90.1697 331.34 89.95V89.95C331.571 89.6503 331.712 89.2912 331.747 88.9145C331.782 88.5377 331.71 88.1588 331.538 87.8216C331.366 87.4844 331.102 87.2029 330.777 87.0097C330.452 86.8164 330.078 86.7195 329.7 86.73V86.75Z" fill="white"/>
<path d="M339 67.31L335.15 72.62C335.134 72.6396 335.123 72.6628 335.119 72.6877C335.114 72.7125 335.116 72.738 335.124 72.7619C335.132 72.7859 335.146 72.8074 335.165 72.8245C335.183 72.8417 335.206 72.8539 335.23 72.86C335.97 73.03 338.39 73.12 339.23 67.42C339.227 67.3946 339.218 67.3704 339.203 67.3495C339.188 67.3287 339.169 67.312 339.146 67.301C339.123 67.29 339.097 67.285 339.072 67.2866C339.046 67.2882 339.022 67.2962 339 67.31V67.31Z" fill="white"/>
<path d="M322.67 84.18C322.607 84.1802 322.544 84.1679 322.486 84.1439C322.428 84.1199 322.375 84.0846 322.33 84.04C322.282 83.9951 322.244 83.9409 322.218 83.8807C322.192 83.8205 322.178 83.7556 322.178 83.69C322.178 83.6244 322.192 83.5595 322.218 83.4993C322.244 83.4391 322.282 83.3849 322.33 83.34L333 71.85C333.236 71.5968 333.538 71.4147 333.872 71.3246C334.206 71.2344 334.559 71.2398 334.89 71.34L336.06 71.69C336.124 71.7072 336.183 71.7371 336.235 71.7779C336.287 71.8188 336.33 71.8696 336.362 71.9276C336.394 71.9855 336.414 72.0492 336.42 72.1149C336.427 72.1807 336.42 72.247 336.4 72.31C336.361 72.4355 336.274 72.5405 336.158 72.6022C336.042 72.664 335.906 72.6776 335.78 72.64L334.61 72.29C334.455 72.2447 334.291 72.2431 334.136 72.2855C333.981 72.3278 333.84 72.4125 333.73 72.53L323 84C322.916 84.0991 322.799 84.1633 322.67 84.18V84.18Z" fill="white"/>
<path d="M320.61 85.23C319.973 85.2294 319.354 85.0262 318.84 84.65C318.513 84.4194 318.235 84.1257 318.024 83.7863C317.812 83.4468 317.67 83.0684 317.607 82.6733C317.543 82.2782 317.56 81.8744 317.655 81.4857C317.75 81.097 317.922 80.7313 318.16 80.41V80.41C318.397 80.0867 318.696 79.8134 319.04 79.6058C319.383 79.3982 319.763 79.2603 320.16 79.2C320.552 79.1366 320.953 79.1516 321.339 79.2443C321.725 79.337 322.089 79.5055 322.41 79.74C322.911 80.0828 323.296 80.5695 323.515 81.1359C323.733 81.7022 323.775 82.3215 323.634 82.912C323.493 83.5025 323.177 84.0364 322.726 84.4431C322.275 84.8498 321.712 85.1103 321.11 85.19C320.944 85.2141 320.777 85.2275 320.61 85.23V85.23ZM320.61 80.16C320.5 80.1501 320.39 80.1501 320.28 80.16C320.022 80.2091 319.776 80.3085 319.556 80.4527C319.337 80.5968 319.148 80.7828 319 81C318.775 81.3215 318.649 81.7023 318.638 82.0949C318.628 82.4875 318.733 82.8744 318.941 83.2075C319.149 83.5406 319.451 83.8051 319.808 83.968C320.165 84.1309 320.563 84.185 320.951 84.1235C321.338 84.0621 321.7 83.8878 321.989 83.6224C322.279 83.357 322.484 83.0123 322.578 82.6312C322.673 82.2501 322.654 81.8496 322.522 81.4795C322.391 81.1094 322.154 80.7861 321.84 80.55C321.487 80.2898 321.058 80.1527 320.62 80.16H320.61Z" fill="white"/>
<path d="M376.97 168.51C388.336 168.51 397.55 159.296 397.55 147.93C397.55 136.564 388.336 127.35 376.97 127.35C365.604 127.35 356.39 136.564 356.39 147.93C356.39 159.296 365.604 168.51 376.97 168.51Z" fill="#16A085"/>
<path opacity="0.5" d="M390 145.74L385.59 159.74C385.34 160.512 384.795 161.155 384.075 161.529C383.355 161.904 382.516 161.979 381.74 161.74L365.16 156.52C364.385 156.274 363.738 155.731 363.363 155.009C362.988 154.287 362.915 153.446 363.16 152.67L368.38 136.1C368.626 135.325 369.169 134.678 369.891 134.303C370.613 133.928 371.454 133.855 372.23 134.1L386.23 138.51L385.43 141.07C385.185 141.846 385.258 142.687 385.633 143.409C386.008 144.131 386.655 144.674 387.43 144.92L390 145.74Z" fill="white"/>
<path opacity="0.5" d="M388.4 145.24L383.99 159.24C383.877 159.595 383.629 159.89 383.299 160.062C382.97 160.235 382.585 160.27 382.23 160.16L365.66 155C365.307 154.885 365.013 154.637 364.841 154.308C364.669 153.979 364.633 153.595 364.74 153.24L370 136.62C370.056 136.445 370.145 136.282 370.264 136.141C370.383 136.001 370.528 135.885 370.691 135.8C370.855 135.716 371.033 135.664 371.217 135.649C371.4 135.633 371.585 135.654 371.76 135.71L385.76 140.12L385.46 141.12C385.215 141.896 385.288 142.737 385.663 143.459C386.038 144.181 386.685 144.724 387.46 144.97L388.4 145.24Z" fill="white"/>
<path opacity="0.5" d="M377.81 148.2C377.756 148.365 377.655 148.511 377.519 148.619C377.382 148.727 377.217 148.792 377.044 148.806C376.87 148.82 376.697 148.782 376.545 148.697C376.393 148.613 376.27 148.485 376.19 148.331C376.111 148.176 376.079 148.001 376.099 147.828C376.118 147.656 376.189 147.493 376.301 147.36C376.414 147.227 376.563 147.131 376.73 147.083C376.897 147.035 377.074 147.037 377.24 147.09C377.462 147.163 377.645 147.321 377.752 147.528C377.859 147.736 377.88 147.977 377.81 148.2V148.2Z" fill="white"/>
<path opacity="0.5" d="M376.91 151.08C376.876 151.191 376.82 151.295 376.745 151.384C376.671 151.474 376.579 151.548 376.476 151.602C376.373 151.656 376.26 151.689 376.144 151.699C376.028 151.709 375.911 151.696 375.8 151.66C375.578 151.587 375.394 151.43 375.285 151.222C375.177 151.015 375.154 150.774 375.22 150.55C375.307 150.347 375.466 150.184 375.666 150.091C375.867 149.999 376.094 149.984 376.305 150.05C376.515 150.116 376.694 150.258 376.806 150.449C376.918 150.639 376.955 150.864 376.91 151.08V151.08Z" fill="white"/>
<path opacity="0.5" d="M378.72 145.32C378.666 145.485 378.565 145.631 378.429 145.739C378.292 145.847 378.127 145.912 377.954 145.926C377.78 145.94 377.607 145.902 377.455 145.817C377.303 145.733 377.18 145.605 377.1 145.451C377.021 145.296 376.989 145.121 377.009 144.948C377.028 144.776 377.099 144.613 377.211 144.48C377.324 144.347 377.473 144.251 377.64 144.203C377.807 144.155 377.984 144.157 378.15 144.21C378.26 144.245 378.363 144.302 378.451 144.377C378.54 144.452 378.613 144.543 378.666 144.647C378.719 144.75 378.751 144.862 378.76 144.978C378.769 145.093 378.756 145.21 378.72 145.32V145.32Z" fill="white"/>
<path opacity="0.5" d="M380.7 149.11C380.665 149.22 380.608 149.323 380.533 149.411C380.458 149.5 380.367 149.573 380.263 149.626C380.16 149.679 380.048 149.711 379.932 149.72C379.817 149.729 379.7 149.716 379.59 149.68C379.367 149.61 379.181 149.454 379.074 149.247C378.966 149.039 378.945 148.798 379.015 148.575C379.085 148.352 379.241 148.166 379.448 148.059C379.656 147.951 379.897 147.93 380.12 148C380.343 148.071 380.53 148.228 380.638 148.436C380.747 148.644 380.769 148.886 380.7 149.11V149.11Z" fill="white"/>
<path opacity="0.5" d="M379.79 152C379.72 152.223 379.564 152.409 379.357 152.516C379.149 152.624 378.908 152.645 378.685 152.575C378.462 152.505 378.276 152.349 378.169 152.142C378.061 151.934 378.04 151.693 378.11 151.47C378.145 151.36 378.201 151.257 378.275 151.169C378.35 151.08 378.441 151.007 378.543 150.954C378.646 150.9 378.758 150.868 378.873 150.858C378.989 150.847 379.105 150.86 379.215 150.895C379.325 150.93 379.428 150.986 379.516 151.06C379.605 151.135 379.678 151.226 379.731 151.328C379.785 151.431 379.817 151.543 379.827 151.658C379.838 151.774 379.825 151.89 379.79 152V152Z" fill="white"/>
<path opacity="0.5" d="M381.61 146.22C381.576 146.331 381.52 146.435 381.445 146.524C381.371 146.614 381.279 146.688 381.176 146.742C381.073 146.796 380.96 146.829 380.844 146.839C380.728 146.849 380.611 146.836 380.5 146.8C380.278 146.727 380.094 146.57 379.985 146.362C379.877 146.155 379.854 145.914 379.92 145.69C380.007 145.487 380.166 145.324 380.366 145.231C380.567 145.139 380.794 145.124 381.005 145.19C381.215 145.256 381.394 145.398 381.506 145.589C381.618 145.779 381.655 146.004 381.61 146.22Z" fill="white"/>
<path opacity="0.5" d="M383.58 150C383.504 150.214 383.348 150.391 383.145 150.493C382.942 150.595 382.707 150.615 382.49 150.548C382.273 150.48 382.09 150.332 381.98 150.133C381.87 149.934 381.841 149.7 381.9 149.48C381.931 149.366 381.984 149.258 382.057 149.165C382.13 149.072 382.221 148.994 382.325 148.937C382.428 148.879 382.542 148.844 382.66 148.832C382.778 148.819 382.897 148.831 383.01 148.866C383.124 148.901 383.229 148.959 383.319 149.035C383.409 149.112 383.483 149.206 383.537 149.312C383.59 149.418 383.621 149.533 383.629 149.652C383.636 149.77 383.619 149.888 383.58 150V150Z" fill="white"/>
<path opacity="0.5" d="M382.67 152.9C382.616 153.065 382.515 153.211 382.379 153.319C382.242 153.427 382.077 153.492 381.904 153.506C381.73 153.52 381.557 153.482 381.405 153.397C381.253 153.313 381.13 153.185 381.05 153.03C380.971 152.876 380.939 152.701 380.959 152.528C380.978 152.356 381.049 152.193 381.161 152.06C381.274 151.927 381.423 151.831 381.59 151.783C381.757 151.735 381.934 151.737 382.1 151.79C382.322 151.863 382.505 152.021 382.612 152.228C382.719 152.436 382.74 152.677 382.67 152.9V152.9Z" fill="white"/>
<path opacity="0.5" d="M384.49 147.13C384.437 147.295 384.336 147.441 384.201 147.549C384.065 147.658 383.9 147.723 383.727 147.738C383.554 147.753 383.381 147.716 383.229 147.633C383.077 147.549 382.952 147.423 382.872 147.269C382.792 147.115 382.759 146.941 382.777 146.768C382.795 146.596 382.864 146.432 382.975 146.299C383.086 146.165 383.234 146.068 383.4 146.018C383.567 145.968 383.744 145.969 383.91 146.02C384.133 146.091 384.32 146.248 384.428 146.456C384.537 146.664 384.559 146.906 384.49 147.13Z" fill="white"/>
<path opacity="0.5" d="M374.93 147.29C374.877 147.455 374.776 147.601 374.641 147.709C374.505 147.818 374.34 147.883 374.167 147.898C373.994 147.913 373.821 147.876 373.669 147.793C373.517 147.709 373.392 147.583 373.312 147.429C373.232 147.275 373.199 147.101 373.217 146.928C373.235 146.756 373.304 146.592 373.415 146.459C373.526 146.325 373.674 146.228 373.84 146.178C374.007 146.128 374.184 146.129 374.35 146.18C374.573 146.251 374.76 146.408 374.868 146.616C374.977 146.824 374.999 147.066 374.93 147.29V147.29Z" fill="white"/>
<path opacity="0.5" d="M374 150.18C373.946 150.345 373.845 150.491 373.709 150.599C373.572 150.707 373.407 150.772 373.234 150.786C373.06 150.8 372.887 150.762 372.735 150.677C372.583 150.593 372.46 150.465 372.38 150.31C372.301 150.156 372.269 149.981 372.289 149.808C372.308 149.636 372.379 149.473 372.491 149.34C372.604 149.207 372.753 149.111 372.92 149.063C373.087 149.015 373.264 149.017 373.43 149.07C373.54 149.105 373.643 149.162 373.731 149.237C373.82 149.312 373.893 149.403 373.946 149.507C373.999 149.61 374.031 149.722 374.04 149.838C374.049 149.953 374.036 150.07 374 150.18V150.18Z" fill="white"/>
<path opacity="0.5" d="M375.84 144.41C375.805 144.521 375.748 144.623 375.673 144.711C375.598 144.8 375.507 144.873 375.404 144.926C375.3 144.979 375.188 145.011 375.072 145.02C374.957 145.029 374.84 145.016 374.73 144.98C374.507 144.91 374.321 144.754 374.214 144.547C374.106 144.339 374.085 144.098 374.155 143.875C374.225 143.652 374.381 143.467 374.588 143.359C374.796 143.251 375.037 143.23 375.26 143.3C375.483 143.371 375.67 143.528 375.778 143.736C375.887 143.944 375.909 144.186 375.84 144.41Z" fill="white"/>
<path opacity="0.5" d="M372.05 146.38C372.016 146.491 371.96 146.595 371.885 146.685C371.811 146.774 371.719 146.848 371.616 146.902C371.513 146.956 371.4 146.989 371.284 146.999C371.168 147.009 371.051 146.996 370.94 146.96C370.718 146.887 370.533 146.73 370.425 146.522C370.317 146.315 370.294 146.074 370.36 145.85C370.447 145.647 370.606 145.484 370.806 145.391C371.007 145.299 371.234 145.284 371.445 145.35C371.655 145.416 371.834 145.558 371.946 145.749C372.058 145.939 372.095 146.164 372.05 146.38V146.38Z" fill="white"/>
<path opacity="0.5" d="M371.14 149.27C371.105 149.381 371.048 149.483 370.973 149.571C370.898 149.66 370.807 149.733 370.703 149.786C370.6 149.839 370.488 149.871 370.372 149.88C370.257 149.889 370.14 149.876 370.03 149.84C369.807 149.77 369.621 149.614 369.514 149.407C369.406 149.199 369.385 148.958 369.455 148.735C369.525 148.512 369.681 148.326 369.888 148.219C370.096 148.111 370.337 148.09 370.56 148.16C370.783 148.231 370.97 148.388 371.078 148.596C371.187 148.804 371.209 149.046 371.14 149.27V149.27Z" fill="white"/>
<path opacity="0.5" d="M373 143.5C372.946 143.665 372.845 143.811 372.709 143.919C372.572 144.027 372.407 144.092 372.234 144.106C372.06 144.12 371.887 144.082 371.735 143.997C371.583 143.913 371.46 143.785 371.38 143.63C371.301 143.476 371.269 143.301 371.289 143.128C371.308 142.956 371.379 142.793 371.491 142.66C371.604 142.527 371.753 142.431 371.92 142.383C372.087 142.335 372.264 142.337 372.43 142.39C372.652 142.463 372.835 142.621 372.942 142.828C373.049 143.036 373.07 143.277 373 143.5V143.5Z" fill="white"/>
<path d="M386.23 138.52L385.42 141.08C385.181 141.856 385.256 142.695 385.631 143.415C386.005 144.135 386.648 144.68 387.42 144.93L389.98 145.74L386.23 138.52Z" fill="white"/>
<path d="M172.99 105.89C184.356 105.89 193.57 96.6761 193.57 85.31C193.57 73.944 184.356 64.73 172.99 64.73C161.624 64.73 152.41 73.944 152.41 85.31C152.41 96.6761 161.624 105.89 172.99 105.89Z" fill="#16A085"/>
<g opacity="0.4">
<path opacity="0.4" d="M173 71.62C170.292 71.62 167.646 72.4229 165.394 73.9272C163.143 75.4314 161.388 77.5695 160.352 80.0711C159.316 82.5726 159.045 85.3252 159.573 87.9808C160.101 90.6364 161.405 93.0757 163.32 94.9903C165.234 96.9049 167.674 98.2087 170.329 98.7369C172.985 99.2652 175.737 98.9941 178.239 97.9579C180.74 96.9217 182.879 95.1671 184.383 92.9158C185.887 90.6644 186.69 88.0176 186.69 85.31C186.691 83.5118 186.338 81.731 185.651 80.0695C184.963 78.408 183.955 76.8983 182.683 75.6268C181.412 74.3553 179.902 73.3469 178.24 72.6594C176.579 71.9719 174.798 71.6187 173 71.62V71.62ZM173 95.72C170.938 95.724 168.921 95.1159 167.204 93.9729C165.488 92.8299 164.149 91.2034 163.358 89.2991C162.567 87.3949 162.358 85.2986 162.759 83.2758C163.159 81.2529 164.151 79.3944 165.608 77.9355C167.066 76.4766 168.923 75.483 170.946 75.0805C172.968 74.6779 175.065 74.8845 176.97 75.6741C178.875 76.4638 180.503 77.8008 181.647 79.5162C182.792 81.2315 183.402 83.2478 183.4 85.31C183.4 88.0692 182.305 90.7155 180.355 92.6674C178.404 94.6194 175.759 95.7173 173 95.72Z" fill="white"/>
</g>
<g opacity="0.4">
<path opacity="0.4" d="M173 74C170.757 74 168.565 74.6651 166.7 75.9111C164.835 77.1572 163.382 78.9283 162.523 81.0004C161.665 83.0725 161.44 85.3526 161.878 87.5523C162.315 89.7521 163.395 91.7727 164.981 93.3586C166.567 94.9445 168.588 96.0245 170.788 96.4621C172.987 96.8997 175.268 96.6751 177.34 95.8168C179.412 94.9585 181.183 93.505 182.429 91.6402C183.675 89.7753 184.34 87.5828 184.34 85.34C184.34 82.3324 183.145 79.4481 181.019 77.3214C178.892 75.1947 176.008 74 173 74V74ZM173 95.75C170.939 95.754 168.923 95.1467 167.208 94.005C165.492 92.8633 164.153 91.2385 163.361 89.336C162.569 87.4336 162.358 85.3388 162.756 83.3168C163.155 81.2947 164.143 79.4362 165.598 77.9761C167.052 76.5161 168.907 75.5201 170.928 75.1142C172.948 74.7082 175.044 74.9105 176.949 75.6956C178.855 76.4806 180.485 77.813 181.633 79.5243C182.781 81.2357 183.396 83.2491 183.4 85.31C183.4 88.0692 182.305 90.7155 180.355 92.6674C178.404 94.6194 175.759 95.7174 173 95.72V95.75Z" fill="white"/>
</g>
<path d="M366.6 252.14C377.966 252.14 387.18 242.926 387.18 231.56C387.18 220.194 377.966 210.98 366.6 210.98C355.234 210.98 346.02 220.194 346.02 231.56C346.02 242.926 355.234 252.14 366.6 252.14Z" fill="#16A085"/>
<path opacity="0.7" d="M377.88 225.82H355.32C354.447 225.82 353.74 226.527 353.74 227.4V235.74C353.74 236.613 354.447 237.32 355.32 237.32H377.88C378.753 237.32 379.46 236.613 379.46 235.74V227.4C379.46 226.527 378.753 225.82 377.88 225.82Z" fill="white"/>
<path d="M369.68 231.29C369.428 231.471 369.127 231.574 368.817 231.584C368.507 231.594 368.2 231.513 367.936 231.349C367.672 231.185 367.463 230.947 367.335 230.664C367.206 230.381 367.165 230.067 367.215 229.76C367.265 229.454 367.405 229.169 367.618 228.942C367.83 228.716 368.104 228.557 368.407 228.486C368.709 228.415 369.026 228.436 369.317 228.545C369.607 228.655 369.859 228.848 370.04 229.1C370.28 229.439 370.377 229.859 370.309 230.269C370.242 230.679 370.016 231.046 369.68 231.29V231.29Z" fill="white"/>
<path d="M365.35 234.39C365.098 234.571 364.797 234.673 364.487 234.684C364.177 234.694 363.87 234.613 363.606 234.449C363.342 234.285 363.133 234.047 363.005 233.764C362.876 233.481 362.835 233.167 362.885 232.86C362.935 232.554 363.075 232.269 363.288 232.042C363.5 231.816 363.774 231.657 364.077 231.586C364.379 231.515 364.696 231.536 364.987 231.645C365.277 231.755 365.529 231.948 365.71 232.2C365.831 232.367 365.918 232.556 365.966 232.757C366.014 232.958 366.021 233.166 365.987 233.37C365.954 233.574 365.88 233.769 365.771 233.944C365.662 234.119 365.518 234.271 365.35 234.39V234.39Z" fill="white"/>
<path d="M372.39 235.08C372.138 235.261 371.837 235.364 371.527 235.374C371.217 235.384 370.91 235.303 370.646 235.139C370.382 234.975 370.173 234.737 370.045 234.454C369.916 234.171 369.874 233.857 369.925 233.55C369.975 233.244 370.115 232.959 370.328 232.732C370.54 232.506 370.814 232.347 371.117 232.276C371.419 232.205 371.736 232.226 372.027 232.335C372.317 232.445 372.569 232.638 372.75 232.89C372.993 233.228 373.091 233.649 373.023 234.06C372.956 234.47 372.728 234.837 372.39 235.08V235.08Z" fill="white"/>
<path d="M368.06 238.17C367.809 238.349 367.511 238.45 367.203 238.46C366.894 238.47 366.59 238.388 366.328 238.225C366.067 238.062 365.859 237.825 365.732 237.544C365.605 237.263 365.564 236.951 365.614 236.646C365.664 236.342 365.804 236.06 366.014 235.835C366.225 235.609 366.498 235.452 366.798 235.382C367.098 235.311 367.413 235.332 367.701 235.44C367.99 235.548 368.24 235.74 368.42 235.99C368.54 236.157 368.626 236.345 368.672 236.545C368.719 236.745 368.726 236.952 368.692 237.155C368.659 237.357 368.586 237.551 368.477 237.725C368.369 237.9 368.227 238.051 368.06 238.17V238.17Z" fill="white"/>
<path d="M375.1 238.86C374.848 239.042 374.547 239.146 374.236 239.157C373.925 239.169 373.618 239.087 373.353 238.923C373.089 238.76 372.879 238.521 372.75 238.238C372.621 237.955 372.58 237.639 372.63 237.332C372.681 237.025 372.822 236.74 373.035 236.514C373.248 236.287 373.523 236.128 373.827 236.058C374.13 235.988 374.447 236.01 374.738 236.121C375.029 236.232 375.28 236.426 375.46 236.68C375.697 237.018 375.792 237.436 375.724 237.843C375.657 238.251 375.433 238.616 375.1 238.86V238.86Z" fill="white"/>
<path d="M370.77 242C370.518 242.181 370.217 242.284 369.907 242.294C369.597 242.304 369.29 242.223 369.026 242.059C368.762 241.895 368.553 241.657 368.425 241.374C368.296 241.091 368.255 240.777 368.305 240.47C368.355 240.164 368.495 239.879 368.708 239.652C368.92 239.426 369.194 239.267 369.497 239.196C369.799 239.125 370.116 239.146 370.407 239.255C370.697 239.365 370.949 239.558 371.13 239.81C371.373 240.148 371.471 240.569 371.403 240.98C371.336 241.39 371.108 241.757 370.77 242V242Z" fill="white"/>
<path d="M367 227.5C366.749 227.679 366.451 227.78 366.143 227.79C365.834 227.8 365.53 227.718 365.268 227.555C365.007 227.392 364.799 227.155 364.672 226.874C364.545 226.593 364.504 226.281 364.554 225.976C364.604 225.672 364.744 225.39 364.954 225.165C365.165 224.939 365.438 224.782 365.738 224.712C366.038 224.641 366.353 224.662 366.641 224.77C366.93 224.878 367.18 225.07 367.36 225.32C367.599 225.658 367.696 226.076 367.628 226.484C367.561 226.892 367.335 227.257 367 227.5Z" fill="white"/>
<path d="M362.64 230.6C362.388 230.782 362.087 230.886 361.776 230.897C361.465 230.909 361.158 230.827 360.894 230.663C360.629 230.5 360.419 230.261 360.29 229.978C360.161 229.695 360.12 229.379 360.17 229.072C360.221 228.765 360.362 228.48 360.575 228.254C360.788 228.027 361.063 227.868 361.367 227.798C361.67 227.728 361.987 227.75 362.278 227.861C362.569 227.972 362.82 228.166 363 228.42C363.121 228.586 363.208 228.775 363.255 228.975C363.303 229.175 363.31 229.383 363.277 229.585C363.243 229.788 363.17 229.982 363.06 230.157C362.951 230.331 362.808 230.482 362.64 230.6V230.6Z" fill="white"/>
<path d="M364.26 223.72C364.008 223.901 363.707 224.004 363.397 224.014C363.087 224.024 362.78 223.943 362.516 223.779C362.252 223.615 362.043 223.377 361.915 223.094C361.786 222.811 361.745 222.497 361.795 222.19C361.845 221.884 361.985 221.599 362.198 221.372C362.41 221.146 362.684 220.987 362.987 220.916C363.289 220.845 363.606 220.866 363.897 220.975C364.187 221.085 364.439 221.278 364.62 221.53C364.86 221.869 364.957 222.289 364.889 222.699C364.822 223.109 364.596 223.476 364.26 223.72Z" fill="white"/>
<path d="M359.93 226.81C359.679 226.989 359.381 227.09 359.073 227.1C358.764 227.11 358.46 227.028 358.198 226.865C357.937 226.702 357.729 226.465 357.602 226.184C357.475 225.903 357.434 225.591 357.484 225.286C357.534 224.982 357.674 224.7 357.884 224.475C358.095 224.249 358.368 224.092 358.668 224.022C358.968 223.951 359.283 223.972 359.571 224.08C359.86 224.188 360.11 224.38 360.29 224.63C360.411 224.796 360.498 224.985 360.545 225.185C360.593 225.385 360.6 225.593 360.567 225.795C360.533 225.998 360.46 226.193 360.35 226.367C360.241 226.541 360.098 226.692 359.93 226.81V226.81Z" fill="white"/>
<path d="M166.62 258.33C163.484 260.922 159.649 262.527 155.602 262.941C151.554 263.354 147.474 262.559 143.878 260.655C140.282 258.751 137.331 255.824 135.399 252.243C133.466 248.663 132.638 244.589 133.019 240.538C133.401 236.487 134.974 232.64 137.541 229.483C140.108 226.326 143.554 224.001 147.442 222.802C151.33 221.602 155.486 221.582 159.386 222.744C163.285 223.906 166.753 226.198 169.35 229.33C171.077 231.413 172.376 233.815 173.174 236.4C173.972 238.985 174.252 241.703 173.998 244.396C173.744 247.09 172.962 249.707 171.696 252.098C170.43 254.489 168.705 256.606 166.62 258.33V258.33Z" fill="#16A085"/>
<path opacity="0.6" d="M142.07 251.94C141.865 251.69 141.767 251.369 141.797 251.047C141.827 250.725 141.983 250.428 142.23 250.22L163.23 232.86C163.353 232.757 163.496 232.68 163.649 232.633C163.802 232.585 163.963 232.568 164.123 232.583C164.283 232.598 164.438 232.644 164.58 232.719C164.722 232.794 164.848 232.896 164.95 233.02V233.02C165.053 233.143 165.13 233.286 165.177 233.439C165.225 233.592 165.242 233.753 165.227 233.913C165.212 234.073 165.166 234.228 165.091 234.37C165.016 234.512 164.914 234.638 164.79 234.74L143.79 252.1C143.667 252.203 143.524 252.28 143.371 252.327C143.218 252.375 143.057 252.392 142.897 252.377C142.737 252.362 142.582 252.316 142.44 252.241C142.298 252.166 142.172 252.064 142.07 251.94Z" fill="white"/>
<path opacity="0.6" d="M161.49 235.87C161.421 235.787 161.368 235.691 161.336 235.587C161.304 235.484 161.293 235.375 161.303 235.267C161.313 235.159 161.345 235.054 161.396 234.959C161.447 234.863 161.516 234.779 161.6 234.71L163.24 233.35C163.409 233.212 163.625 233.147 163.843 233.167C164.06 233.188 164.26 233.293 164.4 233.46V233.46C164.535 233.63 164.599 233.846 164.579 234.062C164.558 234.278 164.455 234.478 164.29 234.62L162.64 236C162.556 236.068 162.46 236.119 162.357 236.149C162.253 236.179 162.145 236.189 162.038 236.177C161.931 236.165 161.827 236.131 161.733 236.079C161.639 236.026 161.556 235.955 161.49 235.87V235.87Z" fill="white"/>
<path opacity="0.6" d="M143.87 249.75C143.819 249.698 143.791 249.628 143.791 249.555C143.791 249.482 143.819 249.412 143.87 249.36L155.6 239.65C155.652 239.599 155.722 239.571 155.795 239.571C155.868 239.571 155.938 239.599 155.99 239.65C156.041 239.702 156.069 239.772 156.069 239.845C156.069 239.918 156.041 239.988 155.99 240.04L144.26 249.75C144.208 249.801 144.138 249.829 144.065 249.829C143.992 249.829 143.922 249.801 143.87 249.75Z" fill="white"/>
<path d="M134.64 180.93C146.006 180.93 155.22 171.716 155.22 160.35C155.22 148.984 146.006 139.77 134.64 139.77C123.274 139.77 114.06 148.984 114.06 160.35C114.06 171.716 123.274 180.93 134.64 180.93Z" fill="#16A085"/>
<path opacity="0.4" d="M145.99 149.63H123.31C122.15 149.63 121.21 150.57 121.21 151.73V168.97C121.21 170.13 122.15 171.07 123.31 171.07H145.99C147.15 171.07 148.09 170.13 148.09 168.97V151.73C148.09 150.57 147.15 149.63 145.99 149.63Z" fill="white"/>
<path d="M120.36 157.56L123.19 171.47C123.303 172.015 123.627 172.494 124.092 172.801C124.557 173.108 125.124 173.219 125.67 173.11L147.89 168.59C148.435 168.479 148.913 168.157 149.22 167.694C149.528 167.231 149.639 166.665 149.53 166.12L146.7 152.21L120.36 157.56Z" fill="white"/>
<path opacity="0.2" d="M139.01 156.54H135.66V159.29H139.01V156.54Z" fill="#16A085"/>
<path opacity="0.2" d="M139.83 160.58H136.48V163.33H139.83V160.58Z" fill="#16A085"/>
<path opacity="0.2" d="M145.13 155.3H141.78V158.05H145.13V155.3Z" fill="#16A085"/>
<path opacity="0.2" d="M145.95 159.34H142.6V162.09H145.95V159.34Z" fill="#16A085"/>
<path opacity="0.2" d="M132.89 157.78H129.54V160.53H132.89V157.78Z" fill="#16A085"/>
<path opacity="0.2" d="M133.71 161.83H130.36V164.58H133.71V161.83Z" fill="#16A085"/>
<path opacity="0.2" d="M126.77 159.03H123.42V161.78H126.77V159.03Z" fill="#16A085"/>
<path opacity="0.2" d="M127.59 163.07H124.24V165.82H127.59V163.07Z" fill="#16A085"/>
<path opacity="0.2" d="M140.65 164.62H137.3V167.37H140.65V164.62Z" fill="#16A085"/>
<path opacity="0.2" d="M146.78 163.38H143.43V166.13H146.78V163.38Z" fill="#16A085"/>
<path opacity="0.2" d="M134.53 165.87H131.18V168.62H134.53V165.87Z" fill="#16A085"/>
<path opacity="0.2" d="M128.41 167.11H125.06V169.86H128.41V167.11Z" fill="#16A085"/>
<path d="M290.93 126.21C304.17 125.47 311.93 138.42 304.25 146.66C296.57 154.9 302.03 158.95 305.12 160.45C301.74 170.19 274.68 171.53 268.94 163.31C264.12 156.41 282.94 147.53 278.4 140C273.86 132.47 280.63 126 290.93 126.21Z" fill="#263238"/>
<path d="M210.9 184.63L212.76 186.72C213.104 187.109 213.535 187.41 214.019 187.598C214.502 187.786 215.024 187.855 215.54 187.8L220.43 187.28C221.395 187.177 222.322 186.844 223.132 186.31C223.943 185.776 224.614 185.056 225.09 184.21L225.68 183.15C222.84 179.47 217.05 177.58 217.05 177.58L215.46 176.86C215.138 176.702 214.788 176.61 214.43 176.588C214.072 176.567 213.713 176.617 213.375 176.735C213.036 176.853 212.724 177.037 212.458 177.277C212.191 177.516 211.974 177.806 211.82 178.13L210.35 181.26C210.104 181.814 210.025 182.428 210.123 183.027C210.221 183.625 210.491 184.183 210.9 184.63V184.63Z" fill="#FFB573"/>
<path d="M273.44 184.15C272.37 185.35 271.44 186.39 270.37 187.48C269.3 188.57 268.32 189.6 267.28 190.65C265.19 192.74 263.08 194.81 260.88 196.81C256.411 201.028 251.537 204.796 246.33 208.06H246.28C246.151 208.141 246.017 208.214 245.88 208.28C244.422 208.982 242.817 209.325 241.2 209.28C239.983 209.227 238.78 208.995 237.63 208.59C235.971 207.995 234.4 207.177 232.96 206.16C230.676 204.526 228.55 202.681 226.61 200.65C224.75 198.77 223.04 196.85 221.41 194.89C219.78 192.93 218.22 191.02 216.62 188.89L226.52 181.84C227.76 183.58 229.21 185.49 230.64 187.22C232.07 188.95 233.64 190.65 235.15 192.22C236.574 193.659 238.127 194.965 239.79 196.12C240.33 196.492 240.914 196.794 241.53 197.02C241.68 197.07 241.71 197.02 241.53 197.02C241.124 197.005 240.721 197.095 240.36 197.28L239.91 197.52C242.042 196.114 244.086 194.577 246.03 192.92C248.03 191.22 250.03 189.37 251.92 187.45C253.81 185.53 255.71 183.54 257.53 181.5C258.43 180.5 259.33 179.44 260.21 178.39C261.09 177.34 261.98 176.26 262.74 175.29L273.44 184.15Z" fill="#16A085"/>
<path opacity="0.7" d="M273.44 184.15C272.37 185.35 271.44 186.39 270.37 187.48C269.3 188.57 268.32 189.6 267.28 190.65C265.19 192.74 263.08 194.81 260.88 196.81C256.411 201.028 251.537 204.796 246.33 208.06H246.28C246.151 208.141 246.017 208.214 245.88 208.28C244.422 208.982 242.817 209.325 241.2 209.28C239.983 209.227 238.78 208.995 237.63 208.59C235.971 207.995 234.4 207.177 232.96 206.16C230.676 204.526 228.55 202.681 226.61 200.65C224.75 198.77 223.04 196.85 221.41 194.89C219.78 192.93 218.22 191.02 216.62 188.89L226.52 181.84C227.76 183.58 229.21 185.49 230.64 187.22C232.07 188.95 233.64 190.65 235.15 192.22C236.574 193.659 238.127 194.965 239.79 196.12C240.33 196.492 240.914 196.794 241.53 197.02C241.68 197.07 241.71 197.02 241.53 197.02C241.124 197.005 240.721 197.095 240.36 197.28L239.91 197.52C242.042 196.114 244.086 194.577 246.03 192.92C248.03 191.22 250.03 189.37 251.92 187.45C253.81 185.53 255.71 183.54 257.53 181.5C258.43 180.5 259.33 179.44 260.21 178.39C261.09 177.34 261.98 176.26 262.74 175.29L273.44 184.15Z" fill="white"/>
<path d="M297.14 416.23C304.14 416.23 303.6 416.12 307.51 415.99C310.86 415.87 311.65 416.29 314.33 416.23C316.58 416.18 316.55 414.03 315.93 411.56C315.61 410.32 315.12 408.8 314.69 406.79H304.13C303.259 408.275 302.048 409.532 300.597 410.457C299.145 411.382 297.494 411.948 295.78 412.11C292 412.61 294.37 416.23 297.14 416.23Z" fill="#16A085"/>
<path d="M244.73 416.23C251.56 416.23 253.86 415.78 257.73 415.65C261.03 415.53 261.54 416.23 264.88 416.23C267.09 416.23 267.51 413.74 266.79 411.87C265.994 410.241 265.355 408.54 264.88 406.79H255.45C253.61 409.79 248.88 411.99 243.68 412.36C239.93 412.63 242 416.23 244.73 416.23Z" fill="#16A085"/>
<path d="M261.43 230C261.43 230 257.77 279.16 259.22 310.38C257.66 339.69 255.42 406.81 255.42 406.81C255.58 408.31 263.47 407.71 264.85 406.81C264.85 406.81 281.85 357.92 277.55 310.38C296.23 260.78 294.14 230 294.14 230H261.43Z" fill="#263238"/>
<path d="M271.24 230C271.24 230 285.75 285.49 291.51 312.74C297.57 341.35 305.75 387.8 304.13 406.81C305.73 407.76 311.46 407.81 314.69 406.81C314.69 406.81 327.16 341.55 311.43 314C316.93 246.21 298.96 230 298.96 230H271.24Z" fill="#263238"/>
<path d="M303.44 402.83C303.373 404.143 303.216 405.449 302.97 406.74C302.937 406.849 302.928 406.963 302.944 407.076C302.96 407.188 303.001 407.296 303.063 407.391C303.124 407.486 303.206 407.567 303.303 407.627C303.399 407.687 303.507 407.726 303.62 407.74C307.47 408.36 313.09 407.46 314.87 407.14C315.037 407.111 315.192 407.032 315.312 406.912C315.432 406.792 315.511 406.637 315.54 406.47L316.22 402.82C316.243 402.704 316.239 402.584 316.209 402.469C316.178 402.354 316.123 402.248 316.046 402.158C315.969 402.067 315.873 401.996 315.765 401.947C315.656 401.899 315.539 401.876 315.42 401.88L304.25 402.09C304.048 402.094 303.854 402.171 303.705 402.307C303.556 402.443 303.462 402.629 303.44 402.83V402.83Z" fill="#263238"/>
<path opacity="0.1" d="M303.44 402.83C303.373 404.143 303.216 405.449 302.97 406.74C302.937 406.849 302.928 406.963 302.944 407.076C302.96 407.188 303.001 407.296 303.063 407.391C303.124 407.486 303.206 407.567 303.303 407.627C303.399 407.687 303.507 407.726 303.62 407.74C307.47 408.36 313.09 407.46 314.87 407.14C315.037 407.111 315.192 407.032 315.312 406.912C315.432 406.792 315.511 406.637 315.54 406.47L316.22 402.82C316.243 402.704 316.239 402.584 316.209 402.469C316.178 402.354 316.123 402.248 316.046 402.158C315.969 402.067 315.873 401.996 315.765 401.947C315.656 401.899 315.539 401.876 315.42 401.88L304.25 402.09C304.048 402.094 303.854 402.171 303.705 402.307C303.556 402.443 303.462 402.629 303.44 402.83V402.83Z" fill="white"/>
<path d="M254.54 402.66C254.46 403.66 254.32 405.49 254.16 406.83C254.135 407.042 254.194 407.255 254.325 407.424C254.456 407.593 254.648 407.703 254.86 407.73C258.326 408.013 261.811 407.973 265.27 407.61C265.44 407.598 265.603 407.533 265.734 407.423C265.865 407.314 265.958 407.166 266 407L266.87 403.35C266.896 403.233 266.897 403.112 266.872 402.995C266.846 402.878 266.796 402.768 266.723 402.673C266.651 402.578 266.558 402.499 266.452 402.444C266.346 402.388 266.23 402.356 266.11 402.35L255.4 401.93C255.295 401.92 255.19 401.932 255.09 401.963C254.99 401.995 254.897 402.046 254.817 402.114C254.737 402.182 254.671 402.266 254.623 402.359C254.576 402.453 254.548 402.555 254.54 402.66Z" fill="#263238"/>
<path opacity="0.1" d="M254.54 402.66C254.46 403.66 254.32 405.49 254.16 406.83C254.135 407.042 254.194 407.255 254.325 407.424C254.456 407.593 254.648 407.703 254.86 407.73C258.326 408.013 261.811 407.973 265.27 407.61C265.44 407.598 265.603 407.533 265.734 407.423C265.865 407.314 265.958 407.166 266 407L266.87 403.35C266.896 403.233 266.897 403.112 266.872 402.995C266.846 402.878 266.796 402.768 266.723 402.673C266.651 402.578 266.558 402.499 266.452 402.444C266.346 402.388 266.23 402.356 266.11 402.35L255.4 401.93C255.295 401.92 255.19 401.932 255.09 401.963C254.99 401.995 254.897 402.046 254.817 402.114C254.737 402.182 254.671 402.266 254.623 402.359C254.576 402.453 254.548 402.555 254.54 402.66Z" fill="white"/>
<path d="M259.31 185.79C259.096 191.514 259.176 197.245 259.55 202.96C259.84 210.42 260.35 217.75 261.43 229.96H299C298.25 219.38 299.48 207.34 306.22 183.55C306.617 182.306 306.731 180.988 306.553 179.695C306.375 178.401 305.91 177.163 305.192 176.072C304.474 174.981 303.521 174.064 302.403 173.389C301.285 172.714 300.03 172.298 298.73 172.17C297.24 172.02 295.67 171.9 294.05 171.82C288.391 171.412 282.709 171.412 277.05 171.82C275.19 171.99 273.28 172.22 271.44 172.47C268.183 172.93 265.189 174.512 262.975 176.944C260.76 179.376 259.464 182.505 259.31 185.79V185.79Z" fill="white"/>
<path d="M292.81 152.65C291.33 158.13 289.51 168.18 293.07 171.84C293.07 171.84 287.88 171.06 276.85 177.84C273.66 173.26 276.03 171.84 276.03 171.84C282.25 170.38 282.43 165.84 281.69 161.58L292.81 152.65Z" fill="#FFB573"/>
<path d="M279.17 176.5C281.24 177.88 282.17 183.24 282.17 183.24C282.17 183.24 295.89 178.05 295.39 171.99C294.292 171.381 293.227 170.713 292.2 169.99C292.2 169.99 281.29 174.41 279.17 176.5Z" fill="#16A085"/>
<path d="M275.72 175.92C274.693 177.807 273.929 179.826 273.45 181.92C267.94 177.37 274.35 171.85 274.35 171.85C275.349 171.296 276.516 171.129 277.63 171.38C276.835 171.799 276.211 172.48 275.862 173.308C275.514 174.136 275.464 175.059 275.72 175.92V175.92Z" fill="#16A085"/>
<path opacity="0.2" d="M288.28 156.29L281.69 161.58C281.877 162.569 281.977 163.573 281.99 164.58C284.35 164.24 287.75 161.68 288.18 159.24C288.39 158.271 288.423 157.271 288.28 156.29V156.29Z" fill="black"/>
<path d="M297.49 141.65C295.83 150.5 295.31 154.27 290.26 158.52C282.66 164.91 272.26 161.52 271.26 152.52C270.37 144.4 273.26 131.28 282.36 128.36C284.294 127.673 286.377 127.515 288.393 127.902C290.409 128.29 292.285 129.208 293.827 130.563C295.369 131.917 296.522 133.659 297.166 135.608C297.81 137.558 297.922 139.643 297.49 141.65V141.65Z" fill="#FFB573"/>
<path d="M291.09 130.15C288.4 137.31 294.16 141.57 295.44 147.76C302.11 143.33 302.58 124.81 291.09 130.15Z" fill="#263238"/>
<path d="M292.44 142.12C292.193 142.12 291.95 142.061 291.73 141.95C291.551 141.849 291.394 141.713 291.268 141.549C291.143 141.386 291.052 141.199 291 141C290.935 140.804 290.91 140.597 290.926 140.391C290.941 140.185 290.997 139.984 291.09 139.8C291.28 139.431 291.607 139.151 292 139.02L296.68 137.5C296.877 137.434 297.085 137.408 297.292 137.423C297.499 137.438 297.701 137.493 297.887 137.586C298.073 137.679 298.238 137.807 298.375 137.964C298.511 138.121 298.614 138.303 298.68 138.5C298.746 138.697 298.772 138.905 298.757 139.112C298.742 139.319 298.687 139.521 298.594 139.707C298.501 139.893 298.373 140.058 298.216 140.194C298.059 140.331 297.877 140.434 297.68 140.5V140.5L292.92 142C292.767 142.064 292.605 142.105 292.44 142.12V142.12ZM297.12 137.96C297.007 137.961 296.896 137.982 296.79 138.02L292.11 139.54C291.841 139.627 291.618 139.817 291.489 140.068C291.36 140.319 291.335 140.611 291.42 140.88C291.509 141.148 291.699 141.371 291.95 141.5C292.075 141.565 292.212 141.605 292.353 141.617C292.494 141.629 292.635 141.613 292.77 141.57L297.45 140.04C297.583 139.997 297.706 139.928 297.812 139.837C297.918 139.747 298.005 139.636 298.069 139.511C298.132 139.387 298.17 139.251 298.18 139.112C298.191 138.973 298.174 138.833 298.13 138.7C298.09 138.565 298.022 138.44 297.931 138.334C297.84 138.227 297.727 138.14 297.6 138.08C297.449 138.014 297.284 137.987 297.12 138V137.96Z" fill="white"/>
<path d="M283.47 143.12C283.36 143.87 282.89 144.45 282.41 144.41C281.93 144.37 281.63 143.74 281.73 142.99C281.83 142.24 282.32 141.66 282.8 141.7C283.28 141.74 283.58 142.37 283.47 143.12Z" fill="#263238"/>
<path d="M274.43 142.59C274.32 143.34 273.84 143.92 273.36 143.88C272.88 143.84 272.58 143.21 272.69 142.46C272.8 141.71 273.27 141.13 273.75 141.17C274.23 141.21 274.53 141.84 274.43 142.59Z" fill="#263238"/>
<path d="M274 141.22L272.31 140.58C272.31 140.58 273 142.05 274 141.22Z" fill="#263238"/>
<path d="M276.77 144C275.867 145.665 274.754 147.207 273.46 148.59C273.804 148.892 274.213 149.111 274.655 149.231C275.097 149.35 275.561 149.367 276.01 149.28L276.77 144Z" fill="#ED893E"/>
<path d="M279.83 152.36C279.414 152.395 278.996 152.395 278.58 152.36C278.552 152.358 278.524 152.35 278.499 152.336C278.475 152.322 278.453 152.303 278.436 152.281C278.419 152.258 278.407 152.232 278.401 152.204C278.395 152.176 278.394 152.148 278.4 152.12C278.41 152.062 278.441 152.009 278.487 151.972C278.533 151.935 278.591 151.917 278.65 151.92C279.591 151.989 280.536 151.845 281.413 151.499C282.291 151.152 283.079 150.613 283.72 149.92C283.74 149.898 283.764 149.881 283.79 149.87C283.817 149.858 283.846 149.852 283.875 149.852C283.904 149.852 283.933 149.858 283.96 149.87C283.986 149.881 284.01 149.898 284.03 149.92C284.071 149.961 284.094 150.017 284.094 150.075C284.094 150.133 284.071 150.189 284.03 150.23C282.936 151.428 281.443 152.185 279.83 152.36V152.36Z" fill="#263238"/>
<path d="M298.49 149.17C298.016 149.889 297.396 150.501 296.671 150.966C295.946 151.431 295.131 151.739 294.28 151.87C292.16 152.11 291.62 149.64 292.65 147.41C293.58 145.41 295.79 142.86 297.71 143.66C299.63 144.46 299.82 147.27 298.49 149.17Z" fill="#FFB573"/>
<path d="M297.39 152.23C297.39 152.657 297.263 153.075 297.026 153.43C296.789 153.785 296.451 154.062 296.057 154.226C295.662 154.389 295.228 154.432 294.809 154.348C294.39 154.265 294.005 154.059 293.703 153.757C293.401 153.455 293.195 153.07 293.112 152.651C293.028 152.232 293.071 151.798 293.234 151.403C293.398 151.009 293.675 150.671 294.03 150.434C294.385 150.197 294.803 150.07 295.23 150.07C295.514 150.07 295.795 150.126 296.057 150.234C296.319 150.343 296.557 150.502 296.757 150.703C296.958 150.903 297.117 151.141 297.226 151.403C297.334 151.665 297.39 151.946 297.39 152.23V152.23Z" fill="white"/>
<path d="M286.26 138.77C286.203 138.769 286.147 138.756 286.095 138.732C286.044 138.708 285.998 138.673 285.96 138.63C285.608 138.226 285.163 137.914 284.662 137.722C284.162 137.53 283.622 137.464 283.09 137.53C283.035 137.542 282.979 137.542 282.924 137.531C282.869 137.52 282.818 137.498 282.772 137.466C282.726 137.434 282.687 137.393 282.657 137.346C282.628 137.298 282.608 137.245 282.6 137.19C282.588 137.072 282.62 136.953 282.69 136.857C282.76 136.761 282.863 136.694 282.98 136.67C283.651 136.567 284.338 136.638 284.975 136.874C285.612 137.11 286.178 137.504 286.62 138.02C286.696 138.109 286.733 138.224 286.723 138.34C286.714 138.457 286.659 138.564 286.57 138.64C286.484 138.716 286.375 138.761 286.26 138.77V138.77Z" fill="#263238"/>
<path d="M271.89 138.17C271.78 138.184 271.669 138.156 271.58 138.09C271.535 138.053 271.498 138.008 271.471 137.957C271.444 137.906 271.427 137.85 271.421 137.792C271.416 137.735 271.422 137.677 271.439 137.621C271.456 137.566 271.483 137.515 271.52 137.47C271.937 136.895 272.48 136.424 273.108 136.091C273.735 135.758 274.43 135.573 275.14 135.55C275.196 135.552 275.252 135.566 275.302 135.591C275.352 135.616 275.397 135.652 275.433 135.695C275.469 135.738 275.495 135.789 275.51 135.843C275.525 135.897 275.529 135.954 275.52 136.01C275.507 136.128 275.451 136.236 275.362 136.314C275.273 136.392 275.158 136.433 275.04 136.43C274.478 136.458 273.93 136.613 273.436 136.883C272.943 137.154 272.517 137.532 272.19 137.99C272.115 138.084 272.008 138.148 271.89 138.17Z" fill="#263238"/>
<path d="M283 141.76L281.31 141.11C281.31 141.11 282 142.58 283 141.76Z" fill="#263238"/>
<path d="M295.82 170C291.65 172.86 286.07 203.62 284.47 249.38C283.502 277.032 284.447 304.718 287.3 332.24C287.3 332.24 305.57 312.16 316.98 306.24C317.2 263.54 308.11 234.37 309.16 223.59C310.21 212.81 316.16 183 311.59 177.4C307.02 171.8 295.82 170 295.82 170Z" fill="#16A085"/>
<path opacity="0.8" d="M295.82 170C291.65 172.86 286.07 203.62 284.47 249.38C283.502 277.032 284.447 304.718 287.3 332.24C287.3 332.24 305.57 312.16 316.98 306.24C317.2 263.54 308.11 234.37 309.16 223.59C310.21 212.81 316.16 183 311.59 177.4C307.02 171.8 295.82 170 295.82 170Z" fill="white"/>
<path d="M274.68 171.53C269.82 178.74 259.07 268.53 269.21 332.2C261.21 327.76 255.42 315.5 255.42 315.5C255.42 315.5 254.63 260.08 258.42 229.98C257.64 194.64 253.44 170.7 274.68 171.53Z" fill="#16A085"/>
<path opacity="0.8" d="M274.68 171.53C269.82 178.74 259.07 268.53 269.21 332.2C261.21 327.76 255.42 315.5 255.42 315.5C255.42 315.5 254.63 260.08 258.42 229.98C257.64 194.64 253.44 170.7 274.68 171.53Z" fill="white"/>
<path d="M289.09 230.41C286.568 225.6 284.288 220.668 282.26 215.63C279.18 207.85 276.72 198.63 276.72 198.63C276.72 198.63 253.4 197.75 249.06 200.38C251.6 210.27 262.62 234.13 262.62 234.13C262.62 234.13 280.25 233.82 289.09 230.41Z" fill="#E0E0E0"/>
<path d="M265.12 235.68L286.32 235.04C288.45 234.98 289.55 233.42 288.75 231.58L275.38 200.77C274.873 199.795 274.107 198.978 273.167 198.409C272.227 197.839 271.149 197.539 270.05 197.54L248.85 198.18C246.72 198.24 245.63 199.8 246.43 201.64L259.8 232.45C260.307 233.423 261.07 234.239 262.008 234.809C262.946 235.378 264.023 235.68 265.12 235.68V235.68Z" fill="#16A085"/>
<path d="M264 236.93C262.877 236.903 261.782 236.575 260.828 235.981C259.875 235.386 259.098 234.547 258.58 233.55L245.2 202.74C244.999 202.342 244.9 201.9 244.914 201.455C244.928 201.009 245.054 200.574 245.28 200.19C245.57 199.783 245.956 199.454 246.405 199.234C246.854 199.014 247.351 198.909 247.85 198.93L269.04 198.29C270.189 198.29 271.316 198.605 272.298 199.201C273.28 199.797 274.08 200.651 274.61 201.67L288 232.48C288.199 232.88 288.296 233.323 288.282 233.77C288.268 234.217 288.143 234.653 287.92 235.04C287.629 235.446 287.242 235.772 286.793 235.991C286.345 236.209 285.849 236.312 285.35 236.29L264.15 236.93H264V236.93ZM264.13 236.43L285.33 235.79C285.743 235.81 286.154 235.729 286.528 235.555C286.903 235.381 287.229 235.118 287.48 234.79C287.654 234.469 287.745 234.11 287.745 233.745C287.745 233.38 287.654 233.021 287.48 232.7L274.11 201.89C273.629 200.956 272.899 200.174 272.001 199.63C271.102 199.087 270.07 198.803 269.02 198.81L247.82 199.45C247.406 199.43 246.993 199.511 246.617 199.685C246.241 199.859 245.913 200.122 245.66 200.45C245.487 200.771 245.396 201.13 245.396 201.495C245.396 201.86 245.487 202.219 245.66 202.54L259 233.35C259.486 234.286 260.221 235.07 261.125 235.613C262.029 236.157 263.065 236.44 264.12 236.43H264.13Z" fill="white"/>
<path d="M276.56 212.63L279.07 211.4C279.539 211.171 280.056 211.056 280.577 211.067C281.099 211.077 281.611 211.212 282.07 211.46L286.39 213.81C287.246 214.268 287.977 214.927 288.523 215.73C289.068 216.533 289.41 217.456 289.52 218.42L289.67 219.63C285.67 221.95 279.57 221.49 279.57 221.49L277.82 221.55C277.462 221.573 277.102 221.524 276.763 221.407C276.423 221.29 276.11 221.107 275.842 220.868C275.574 220.628 275.357 220.338 275.202 220.014C275.047 219.69 274.958 219.339 274.94 218.98L274.78 215.53C274.762 214.926 274.92 214.329 275.237 213.814C275.553 213.299 276.013 212.887 276.56 212.63V212.63Z" fill="#FFB573"/>
<path opacity="0.2" d="M303.77 189.09C302.93 202.83 302.88 215.41 306.55 217.53C310.85 213.3 310.54 207.38 303.77 189.09Z" fill="#16A085"/>
<path d="M313 179.39C313.54 180.93 314 182.3 314.41 183.75C314.82 185.2 315.27 186.61 315.67 188.05C316.47 190.93 317.24 193.82 317.89 196.76C319.363 202.837 320.161 209.058 320.27 215.31C320.28 215.46 320.28 215.61 320.27 215.76V215.82C320.092 217.708 319.338 219.495 318.11 220.94C317.185 222.005 316.061 222.878 314.8 223.51C313.146 224.329 311.375 224.889 309.55 225.17C306.748 225.599 303.913 225.766 301.08 225.67C298.41 225.67 295.83 225.46 293.27 225.22C290.71 224.98 288.22 224.71 285.55 224.31L287.55 212.31C289.71 212.67 292.11 213 294.39 213.23C296.67 213.46 298.99 213.58 301.21 213.6C303.269 213.637 305.328 213.486 307.36 213.15C307.954 213.05 308.532 212.872 309.08 212.62C309.15 212.62 309 212.62 308.66 212.98C308.232 213.486 307.967 214.11 307.9 214.77V215.29C307.792 212.751 307.515 210.222 307.07 207.72C306.62 205.12 305.98 202.48 305.28 199.86C304.58 197.24 303.76 194.61 302.87 192.01C302.42 190.71 301.96 189.41 301.47 188.13C300.98 186.85 300.47 185.52 300.01 184.38L313 179.39Z" fill="#16A085"/>
<path opacity="0.8" d="M313 179.39C313.54 180.93 314 182.3 314.41 183.75C314.82 185.2 315.27 186.61 315.67 188.05C316.47 190.93 317.24 193.82 317.89 196.76C319.363 202.837 320.161 209.058 320.27 215.31C320.28 215.46 320.28 215.61 320.27 215.76V215.82C320.092 217.708 319.338 219.495 318.11 220.94C317.185 222.005 316.061 222.878 314.8 223.51C313.146 224.329 311.375 224.889 309.55 225.17C306.748 225.599 303.913 225.766 301.08 225.67C298.41 225.67 295.83 225.46 293.27 225.22C290.71 224.98 288.22 224.71 285.55 224.31L287.55 212.31C289.71 212.67 292.11 213 294.39 213.23C296.67 213.46 298.99 213.58 301.21 213.6C303.269 213.637 305.328 213.486 307.36 213.15C307.954 213.05 308.532 212.872 309.08 212.62C309.15 212.62 309 212.62 308.66 212.98C308.232 213.486 307.967 214.11 307.9 214.77V215.29C307.792 212.751 307.515 210.222 307.07 207.72C306.62 205.12 305.98 202.48 305.28 199.86C304.58 197.24 303.76 194.61 302.87 192.01C302.42 190.71 301.96 189.41 301.47 188.13C300.98 186.85 300.47 185.52 300.01 184.38L313 179.39Z" fill="white"/>
<path d="M293.79 132.71C289.28 137.22 269.05 129.91 269.85 137.41C266.73 130.41 271.64 122.88 284.11 122.88C299.37 122.88 296.53 130 293.79 132.71Z" fill="#263238"/>
<path d="M239.72 155.76L238.72 155.46C239.382 153.394 239.759 151.248 239.84 149.08H240.84C240.767 151.347 240.39 153.593 239.72 155.76V155.76Z" fill="#16A085"/>
<path d="M239.36 143C238.702 139.856 237.426 136.874 235.607 134.227C233.787 131.58 231.46 129.321 228.76 127.58L229.31 126.74C232.114 128.555 234.529 130.908 236.417 133.663C238.306 136.418 239.629 139.52 240.31 142.79L239.36 143Z" fill="#16A085"/>
<path d="M215.42 173.54C210.84 173.537 206.346 172.298 202.412 169.953C198.477 167.609 195.249 164.247 193.066 160.221C190.883 156.195 189.826 151.654 190.008 147.078C190.191 142.502 191.604 138.06 194.1 134.22L194.93 134.76C192.534 138.45 191.178 142.719 191.004 147.115C190.831 151.512 191.846 155.874 193.944 159.741C196.041 163.609 199.144 166.839 202.923 169.092C206.703 171.344 211.02 172.535 215.42 172.54V173.54Z" fill="#16A085"/>
<path d="M215.44 170.19C227.646 170.19 237.54 160.295 237.54 148.09C237.54 135.884 227.646 125.99 215.44 125.99C203.235 125.99 193.34 135.884 193.34 148.09C193.34 160.295 203.235 170.19 215.44 170.19Z" fill="#16A085"/>
<g filter="url(#filter0_di_0_1)">
<path fill-rule="evenodd" clip-rule="evenodd" d="M214.982 158.765C220.475 158.765 225.14 153.953 225.14 147.76C225.14 141.566 220.475 136.755 214.982 136.755C209.489 136.755 204.825 141.566 204.825 147.76C204.825 153.953 209.489 158.765 214.982 158.765ZM214.982 159.52C221.047 159.52 225.964 154.255 225.964 147.76C225.964 141.265 221.047 136 214.982 136C208.917 136 204 141.265 204 147.76C204 154.255 208.917 159.52 214.982 159.52Z" fill="#952929"/>
</g>
<g filter="url(#filter1_d_0_1)">
<path fill-rule="evenodd" clip-rule="evenodd" d="M215.02 154.215C218.755 154.215 221.991 150.937 221.991 146.64C221.991 142.342 218.755 139.065 215.02 139.065C211.285 139.065 208.048 142.342 208.048 146.64C208.048 150.937 211.285 154.215 215.02 154.215ZM215.02 154.97C219.325 154.97 222.816 151.24 222.816 146.64C222.816 142.039 219.325 138.31 215.02 138.31C210.714 138.31 207.223 142.039 207.223 146.64C207.223 151.24 210.714 154.97 215.02 154.97Z" fill="#952929"/>
</g>
<g filter="url(#filter2_d_0_1)">
<path fill-rule="evenodd" clip-rule="evenodd" d="M214.982 149.525C216.884 149.525 218.693 147.74 218.693 145.205C218.693 142.67 216.884 140.885 214.982 140.885C213.08 140.885 211.271 142.67 211.271 145.205C211.271 147.74 213.08 149.525 214.982 149.525ZM214.982 150.28C217.487 150.28 219.517 148.008 219.517 145.205C219.517 142.402 217.487 140.13 214.982 140.13C212.477 140.13 210.447 142.402 210.447 145.205C210.447 148.008 212.477 150.28 214.982 150.28Z" fill="#952929"/>
</g>
<g filter="url(#filter3_d_0_1)">
<path fill-rule="evenodd" clip-rule="evenodd" d="M215.057 145.392C215.621 145.392 216.294 144.834 216.294 143.875C216.294 142.916 215.621 142.357 215.057 142.357C214.493 142.357 213.82 142.916 213.82 143.875C213.82 144.834 214.493 145.392 215.057 145.392ZM215.057 146.01C216.113 146.01 216.969 145.054 216.969 143.875C216.969 142.696 216.113 141.74 215.057 141.74C214.001 141.74 213.146 142.696 213.146 143.875C213.146 145.054 214.001 146.01 215.057 146.01Z" fill="#952929"/>
</g>
<g filter="url(#filter4_d_0_1)">
<path d="M215.919 143.91C215.919 144.335 215.6 144.68 215.207 144.68C214.814 144.68 214.495 144.335 214.495 143.91C214.495 143.485 214.814 143.14 215.207 143.14C215.6 143.14 215.919 143.485 215.919 143.91Z" fill="#952929"/>
</g>
<path d="M216.294 138.555C216.294 139.309 215.639 139.92 214.832 139.92C214.025 139.92 213.37 139.309 213.37 138.555C213.37 137.801 214.025 137.19 214.832 137.19C215.639 137.19 216.294 137.801 216.294 138.555Z" fill="white"/>
<path fill-rule="evenodd" clip-rule="evenodd" d="M221.467 139.221C216.058 143.097 210.457 140.826 208.336 139.213L208.959 138.527C210.887 139.994 215.96 142.035 220.866 138.519L221.467 139.221Z" fill="white"/>
<g filter="url(#filter5_d_0_1)">
<path fill-rule="evenodd" clip-rule="evenodd" d="M213.329 144.971L215.02 147.753L216.71 144.971L220.805 156.441L219.879 156.718L216.477 147.189L215.02 149.587L213.562 147.189L210.16 156.718L209.234 156.441L213.329 144.971Z" fill="white"/>
</g>
<path d="M202.94 296.82C203.55 302.01 216.53 300.55 224.94 293.01C219.71 295.62 208.64 293.84 203.94 295.23C205.2 293.23 206.45 291.3 207.67 289.5C208.93 293.05 218.57 291.27 224.67 285.21C220.92 287.34 212.95 286.65 209.01 287.63C211.01 284.73 212.95 282.15 214.67 279.94C217.44 281.12 223.99 277.35 227.26 271.4C224.2 274.54 215.55 275.91 213.41 278.16C213.464 278.517 213.593 278.858 213.79 279.16C212.96 280.22 212.09 281.37 211.18 282.59C210.51 279.32 205.38 273.13 205.11 268.98C203.53 276.61 207.11 284.86 210.43 283.62C208.94 285.67 207.36 287.91 205.75 290.35C204.54 286.72 198.32 280.41 197.61 275.85C196.61 284.34 201.22 293.01 204.78 291.85C203.48 293.85 202.17 295.95 200.86 298.15C198.86 293.82 189.63 286.91 187.86 281.24C188.18 292.02 195.44 302 199.72 300.09C198.387 302.35 197.1 304.707 195.86 307.16C193.15 302.47 182.23 295.55 179.76 289.33C181.08 301.33 190.01 311.85 194.68 309.51C193.28 312.34 191.94 315.27 190.68 318.3C187.32 313.93 173.92 308.97 169.93 302.89C173.88 315.13 185.51 324.16 189.76 320.53C188.148 324.602 186.746 328.754 185.56 332.97C181.42 328.97 166.84 325.84 161.81 320.16C167.68 332.16 180.93 339.73 184.87 335.5C183.881 339.288 183.097 343.127 182.52 347C177.11 343.37 160.23 342.84 153.52 337.53C162.36 349.53 178.31 355.3 182.16 350.2C181.055 359.708 181.545 369.334 183.61 378.68L184.74 378.42C182.43 367.84 182.128 356.921 183.85 346.23C185.61 352.76 203.16 350.81 214.76 340.74C206.98 344.45 190.3 341.23 184.28 343.63C185.014 339.55 185.976 335.513 187.16 331.54C189.03 336.95 204.16 335.79 214.56 327.54C207.74 330.43 193.78 327.21 188.03 328.75C189.3 324.84 190.73 321.05 192.29 317.41C193.63 322.88 208.4 322.09 218.65 314.25C212.14 316.88 198.99 313.65 193.37 314.94C194.81 311.73 196.37 308.65 197.89 305.71C198.49 311.42 213.02 310.57 222.89 302.71C216.75 305.33 204.15 302.49 198.89 303.87C200.2 301.45 201.57 299.07 202.94 296.82Z" fill="#16A085"/>
<path opacity="0.3" d="M202.94 296.82C203.55 302.01 216.53 300.55 224.94 293.01C219.71 295.62 208.64 293.84 203.94 295.23C205.2 293.23 206.45 291.3 207.67 289.5C208.93 293.05 218.57 291.27 224.67 285.21C220.92 287.34 212.95 286.65 209.01 287.63C211.01 284.73 212.95 282.15 214.67 279.94C217.44 281.12 223.99 277.35 227.26 271.4C224.2 274.54 215.55 275.91 213.41 278.16C213.464 278.517 213.593 278.858 213.79 279.16C212.96 280.22 212.09 281.37 211.18 282.59C210.51 279.32 205.38 273.13 205.11 268.98C203.53 276.61 207.11 284.86 210.43 283.62C208.94 285.67 207.36 287.91 205.75 290.35C204.54 286.72 198.32 280.41 197.61 275.85C196.61 284.34 201.22 293.01 204.78 291.85C203.48 293.85 202.17 295.95 200.86 298.15C198.86 293.82 189.63 286.91 187.86 281.24C188.18 292.02 195.44 302 199.72 300.09C198.387 302.35 197.1 304.707 195.86 307.16C193.15 302.47 182.23 295.55 179.76 289.33C181.08 301.33 190.01 311.85 194.68 309.51C193.28 312.34 191.94 315.27 190.68 318.3C187.32 313.93 173.92 308.97 169.93 302.89C173.88 315.13 185.51 324.16 189.76 320.53C188.148 324.602 186.746 328.754 185.56 332.97C181.42 328.97 166.84 325.84 161.81 320.16C167.68 332.16 180.93 339.73 184.87 335.5C183.881 339.288 183.097 343.127 182.52 347C177.11 343.37 160.23 342.84 153.52 337.53C162.36 349.53 178.31 355.3 182.16 350.2C181.055 359.708 181.545 369.334 183.61 378.68L184.74 378.42C182.43 367.84 182.128 356.921 183.85 346.23C185.61 352.76 203.16 350.81 214.76 340.74C206.98 344.45 190.3 341.23 184.28 343.63C185.014 339.55 185.976 335.513 187.16 331.54C189.03 336.95 204.16 335.79 214.56 327.54C207.74 330.43 193.78 327.21 188.03 328.75C189.3 324.84 190.73 321.05 192.29 317.41C193.63 322.88 208.4 322.09 218.65 314.25C212.14 316.88 198.99 313.65 193.37 314.94C194.81 311.73 196.37 308.65 197.89 305.71C198.49 311.42 213.02 310.57 222.89 302.71C216.75 305.33 204.15 302.49 198.89 303.87C200.2 301.45 201.57 299.07 202.94 296.82Z" fill="black"/>
<path d="M172 379L170.92 378.93C173.38 342.32 144.62 311.93 132.14 300.61L132.86 299.81C145.45 311.3 174.47 342 172 379Z" fill="#16A085"/>
<path d="M142.52 310.23C142.52 307.34 147.38 300.82 147.38 296.74C149.47 304.32 146 313 142.52 310.23Z" fill="#16A085"/>
<path d="M137.14 304.42C136.88 301.86 140.69 295.69 140.36 292.08C142.82 298.63 140.41 306.55 137.14 304.42Z" fill="#16A085"/>
<path d="M147.42 316C147.91 312.36 155.26 305 156.01 299.91C157.26 309.81 151.25 320 147.42 316Z" fill="#16A085"/>
<path d="M152.56 322.79C153.44 318.74 162.36 311.17 163.66 305.46C164.18 316.73 156.51 327.7 152.56 322.79Z" fill="#16A085"/>
<path d="M158.24 330.86C160.01 326.86 170.86 320.92 173.42 315.29C171.56 327.07 161.29 336.79 158.24 330.86Z" fill="#16A085"/>
<path d="M164.26 342.2C166.68 338.32 178.78 333.81 182.26 328.37C178.58 340.26 166.52 348.78 164.26 342.2Z" fill="#16A085"/>
<path d="M168.42 353.32C171.9 349.49 186.29 346.9 191.27 341.55C184.76 354.05 169.6 361.1 168.42 353.32Z" fill="#16A085"/>
<path d="M140.78 308.06C138.09 307.01 130.26 309.28 126.44 307.83C132.79 312.47 142.11 312.25 140.78 308.06Z" fill="#16A085"/>
<path d="M134.75 300.63C132.75 299.06 125.46 299.05 122.57 296.87C126.83 302.41 134.84 304.54 134.75 300.63Z" fill="#16A085"/>
<path d="M145.43 313.56C141.94 312.4 132.14 315.82 127.19 314.24C135.57 319.71 147.4 318.79 145.43 313.56Z" fill="#16A085"/>
<path d="M150.63 320C146.63 318.93 135.82 323.43 130.15 322C139.94 327.54 153.2 325.71 150.63 320Z" fill="#16A085"/>
<path d="M156.66 328.29C152.4 327.29 141.08 332.24 135.06 330.83C145.53 336.53 159.5 334.32 156.66 328.29Z" fill="#16A085"/>
<path d="M162.7 338.9C158.27 337.74 146.37 342.75 140.1 341.18C150.94 347.31 165.56 345.24 162.7 338.9Z" fill="#16A085"/>
<path d="M167.28 350.56C162.34 349.03 148.62 354.08 141.62 351.99C153.56 359.47 170.2 357.88 167.28 350.56Z" fill="#16A085"/>
<path d="M163.86 416.24H188.27C189.016 416.244 189.737 415.969 190.292 415.47C190.847 414.971 191.195 414.283 191.27 413.54L196 367.8C196.045 367.38 196.001 366.955 195.87 366.553C195.74 366.152 195.526 365.782 195.243 365.469C194.96 365.155 194.614 364.905 194.227 364.735C193.841 364.564 193.422 364.478 193 364.48H159.16C158.738 364.478 158.319 364.564 157.933 364.735C157.546 364.905 157.2 365.155 156.917 365.469C156.634 365.782 156.42 366.152 156.29 366.553C156.159 366.955 156.115 367.38 156.16 367.8L160.85 413.54C160.925 414.284 161.275 414.974 161.832 415.473C162.389 415.973 163.112 416.246 163.86 416.24V416.24Z" fill="#16A085"/>
<path opacity="0.6" d="M163.86 416.24H188.27C189.016 416.244 189.737 415.969 190.292 415.47C190.847 414.971 191.195 414.283 191.27 413.54L196 367.8C196.045 367.38 196.001 366.955 195.87 366.553C195.74 366.152 195.526 365.782 195.243 365.469C194.96 365.155 194.614 364.905 194.227 364.735C193.841 364.564 193.422 364.478 193 364.48H159.16C158.738 364.478 158.319 364.564 157.933 364.735C157.546 364.905 157.2 365.155 156.917 365.469C156.634 365.782 156.42 366.152 156.29 366.553C156.159 366.955 156.115 367.38 156.16 367.8L160.85 413.54C160.925 414.284 161.275 414.974 161.832 415.473C162.389 415.973 163.112 416.246 163.86 416.24V416.24Z" fill="white"/>
<defs>
<filter id="filter0_di_0_1" x="200" y="136" width="29.9642" height="31.5197" filterUnits="userSpaceOnUse" color-interpolation-filters="sRGB">
<feFlood flood-opacity="0" result="BackgroundImageFix"/>
<feColorMatrix in="SourceAlpha" type="matrix" values="0 0 0 0 0 0 0 0 0 0 0 0 0 0 0 0 0 0 127 0" result="hardAlpha"/>
<feOffset dy="4"/>
<feGaussianBlur stdDeviation="2"/>
<feComposite in2="hardAlpha" operator="out"/>
<feColorMatrix type="matrix" values="0 0 0 0 0 0 0 0 0 0 0 0 0 0 0 0 0 0 0.25 0"/>
<feBlend mode="normal" in2="BackgroundImageFix" result="effect1_dropShadow_0_1"/>
<feBlend mode="normal" in="SourceGraphic" in2="effect1_dropShadow_0_1" result="shape"/>
<feColorMatrix in="SourceAlpha" type="matrix" values="0 0 0 0 0 0 0 0 0 0 0 0 0 0 0 0 0 0 127 0" result="hardAlpha"/>
<feOffset dx="35" dy="4"/>
<feGaussianBlur stdDeviation="2"/>
<feComposite in2="hardAlpha" operator="arithmetic" k2="-1" k3="1"/>
<feColorMatrix type="matrix" values="0 0 0 0 0.866133 0 0 0 0 0.933333 0 0 0 0 0.0933334 0 0 0 0.25 0"/>
<feBlend mode="saturation" in2="shape" result="effect2_innerShadow_0_1"/>
</filter>
<filter id="filter1_d_0_1" x="207.223" y="138.31" width="25.5924" height="24.6598" filterUnits="userSpaceOnUse" color-interpolation-filters="sRGB">
<feFlood flood-opacity="0" result="BackgroundImageFix"/>
<feColorMatrix in="SourceAlpha" type="matrix" values="0 0 0 0 0 0 0 0 0 0 0 0 0 0 0 0 0 0 127 0" result="hardAlpha"/>
<feOffset dx="6" dy="4"/>
<feGaussianBlur stdDeviation="2"/>
<feComposite in2="hardAlpha" operator="out"/>
<feColorMatrix type="matrix" values="0 0 0 0 0 0 0 0 0 0 0 0 0 0 0 0 0 0 0.45 0"/>
<feBlend mode="normal" in2="BackgroundImageFix" result="effect1_dropShadow_0_1"/>
<feBlend mode="normal" in="SourceGraphic" in2="effect1_dropShadow_0_1" result="shape"/>
</filter>
<filter id="filter2_d_0_1" x="210.447" y="140.13" width="19.0706" height="18.1499" filterUnits="userSpaceOnUse" color-interpolation-filters="sRGB">
<feFlood flood-opacity="0" result="BackgroundImageFix"/>
<feColorMatrix in="SourceAlpha" type="matrix" values="0 0 0 0 0 0 0 0 0 0 0 0 0 0 0 0 0 0 127 0" result="hardAlpha"/>
<feOffset dx="6" dy="4"/>
<feGaussianBlur stdDeviation="2"/>
<feComposite in2="hardAlpha" operator="out"/>
<feColorMatrix type="matrix" values="0 0 0 0 0 0 0 0 0 0 0 0 0 0 0 0 0 0 0.45 0"/>
<feBlend mode="normal" in2="BackgroundImageFix" result="effect1_dropShadow_0_1"/>
<feBlend mode="normal" in="SourceGraphic" in2="effect1_dropShadow_0_1" result="shape"/>
</filter>
<filter id="filter3_d_0_1" x="213.146" y="141.74" width="13.8231" height="12.27" filterUnits="userSpaceOnUse" color-interpolation-filters="sRGB">
<feFlood flood-opacity="0" result="BackgroundImageFix"/>
<feColorMatrix in="SourceAlpha" type="matrix" values="0 0 0 0 0 0 0 0 0 0 0 0 0 0 0 0 0 0 127 0" result="hardAlpha"/>
<feOffset dx="6" dy="4"/>
<feGaussianBlur stdDeviation="2"/>
<feComposite in2="hardAlpha" operator="out"/>
<feColorMatrix type="matrix" values="0 0 0 0 0 0 0 0 0 0 0 0 0 0 0 0 0 0 0.45 0"/>
<feBlend mode="normal" in2="BackgroundImageFix" result="effect1_dropShadow_0_1"/>
<feBlend mode="normal" in="SourceGraphic" in2="effect1_dropShadow_0_1" result="shape"/>
</filter>
<filter id="filter4_d_0_1" x="214.495" y="143.14" width="11.4243" height="9.53998" filterUnits="userSpaceOnUse" color-interpolation-filters="sRGB">
<feFlood flood-opacity="0" result="BackgroundImageFix"/>
<feColorMatrix in="SourceAlpha" type="matrix" values="0 0 0 0 0 0 0 0 0 0 0 0 0 0 0 0 0 0 127 0" result="hardAlpha"/>
<feOffset dx="6" dy="4"/>
<feGaussianBlur stdDeviation="2"/>
<feComposite in2="hardAlpha" operator="out"/>
<feColorMatrix type="matrix" values="0 0 0 0 0 0 0 0 0 0 0 0 0 0 0 0 0 0 0.45 0"/>
<feBlend mode="normal" in2="BackgroundImageFix" result="effect1_dropShadow_0_1"/>
<feBlend mode="normal" in="SourceGraphic" in2="effect1_dropShadow_0_1" result="shape"/>
</filter>
<filter id="filter5_d_0_1" x="209.234" y="144.971" width="21.5711" height="19.7475" filterUnits="userSpaceOnUse" color-interpolation-filters="sRGB">
<feFlood flood-opacity="0" result="BackgroundImageFix"/>
<feColorMatrix in="SourceAlpha" type="matrix" values="0 0 0 0 0 0 0 0 0 0 0 0 0 0 0 0 0 0 127 0" result="hardAlpha"/>
<feOffset dx="6" dy="4"/>
<feGaussianBlur stdDeviation="2"/>
<feComposite in2="hardAlpha" operator="out"/>
<feColorMatrix type="matrix" values="0 0 0 0 0 0 0 0 0 0 0 0 0 0 0 0 0 0 0.45 0"/>
<feBlend mode="normal" in2="BackgroundImageFix" result="effect1_dropShadow_0_1"/>
<feBlend mode="normal" in="SourceGraphic" in2="effect1_dropShadow_0_1" result="shape"/>
</filter>
</defs>
</svg>
